<?xml version="1.0" encoding="utf-8"?>
<!-- Generator: Adobe Illustrator 16.0.4, SVG Export Plug-In . SVG Version: 6.00 Build 0)  -->
<!DOCTYPE svg PUBLIC "-//W3C//DTD SVG 1.1//EN" "http://www.w3.org/Graphics/SVG/1.1/DTD/svg11.dtd">
<svg version="1.1" id="Слой_1" xmlns="http://www.w3.org/2000/svg" xmlns:xlink="http://www.w3.org/1999/xlink" x="0px" y="0px"
	 width="60px" height="70px" viewBox="0 0 60 70" enable-background="new 0 0 60 70" xml:space="preserve">
<g>
	<path fill="#FFFFFF" d="M41.648,45.463c0,1.445-1.17,2.615-2.617,2.615c-1.441,0-2.613-1.17-2.613-2.615V27.155H23.584v18.308
		c0,1.445-1.171,2.615-2.617,2.615c-1.443,0-2.615-1.17-2.615-2.615V24.539c0-1.444,1.172-2.615,2.615-2.615h18.066
		c1.444,0,2.615,1.171,2.615,2.615V45.463z M59.712,19.284c-0.009-0.895-0.474-1.761-1.306-2.241L31.308,1.351
		c-0.833-0.481-1.818-0.45-2.597-0.009c-0.006,0.003-0.012,0.004-0.018,0.009L1.594,17.042c-0.829,0.479-1.295,1.345-1.306,2.238
		c0,0.009-0.003,0.018-0.003,0.026v31.387c0,0.956,0.515,1.789,1.281,2.246c0.009,0.006,0.018,0.013,0.028,0.018l0.047,0.028
		c0.006,0.003,0.012,0.007,0.018,0.01l27.034,15.656c0.007,0.004,0.015,0.006,0.022,0.009c0.78,0.44,1.764,0.47,2.594-0.01
		l27.098-15.692c0.015-0.008,0.026-0.017,0.039-0.026c0.76-0.456,1.269-1.286,1.269-2.238V19.307
		C59.714,19.299,59.712,19.292,59.712,19.284"/>
</g>
</svg>
